HIERARCHY
ROOT Hips
{
	OFFSET 0.00000 0.00000 0.00000
	CHANNELS 6 Xposition Yposition Zposition Zrotation Yrotation Xrotation 
	JOINT LHipJoint
	{
		OFFSET 0 0 0
		CHANNELS 3 Zrotation Yrotation Xrotation
		JOINT LeftUpLeg
		{
			OFFSET 1.53794 -1.55850 0.93568
			CHANNELS 3 Zrotation Yrotation Xrotation
			JOINT LeftLeg
			{
				OFFSET 2.28545 -6.27922 0.00000
				CHANNELS 3 Zrotation Yrotation Xrotation
				JOINT LeftFoot
				{
					OFFSET 2.37329 -6.52057 0.00000
					CHANNELS 3 Zrotation Yrotation Xrotation
					JOINT LeftToeBase
					{
						OFFSET 0.14846 -0.40788 2.09160
						CHANNELS 3 Zrotation Yrotation Xrotation
						End Site
						{
							OFFSET 0.00000 -0.00000 1.07536
						}
					}
				}
			}
		}
	}
	JOINT RHipJoint
	{
		OFFSET 0 0 0
		CHANNELS 3 Zrotation Yrotation Xrotation
		JOINT RightUpLeg
		{
			OFFSET -1.78290 -1.55850 0.93568
			CHANNELS 3 Zrotation Yrotation Xrotation
			JOINT RightLeg
			{
				OFFSET -2.24144 -6.15831 0.00000
				CHANNELS 3 Zrotation Yrotation Xrotation
				JOINT RightFoot
				{
					OFFSET -2.35091 -6.45907 0.00000
					CHANNELS 3 Zrotation Yrotation Xrotation
					JOINT RightToeBase
					{
						OFFSET -0.14428 -0.39641 2.07944
						CHANNELS 3 Zrotation Yrotation Xrotation
						End Site
						{
							OFFSET -0.00000 -0.00000 1.06864
						}
					}
				}
			}
		}
	}
	JOINT LowerBack
	{
		OFFSET 0 0 0
		CHANNELS 3 Zrotation Yrotation Xrotation
		JOINT Spine
		{
			OFFSET -0.08841 2.11430 -0.15818
			CHANNELS 3 Zrotation Yrotation Xrotation
			JOINT Spine1
			{
				OFFSET -0.00033 2.12605 -0.08097
				CHANNELS 3 Zrotation Yrotation Xrotation
				JOINT Neck
				{
					OFFSET 0 0 0
					CHANNELS 3 Zrotation Yrotation Xrotation
					JOINT Neck1
					{
						OFFSET 0.04431 1.59447 0.43193
						CHANNELS 3 Zrotation Yrotation Xrotation
						JOINT Head
						{
							OFFSET 0.00455 1.62017 -0.58852
							CHANNELS 3 Zrotation Yrotation Xrotation
							End Site
							{
								OFFSET -0.00920 1.72955 -0.25850
							}
						}
					}
				}
				JOINT LeftShoulder
				{
					OFFSET 0 0 0
					CHANNELS 3 Zrotation Yrotation Xrotation
					JOINT LeftArm
					{
						OFFSET 2.86490 1.49927 -0.33774
						CHANNELS 3 Zrotation Yrotation Xrotation
						JOINT LeftForeArm
						{
							OFFSET 4.87408 -0.00000 0.00000
							CHANNELS 3 Zrotation Yrotation Xrotation
							JOINT LeftHand
							{
								OFFSET 2.76729 -0.00000 0.00000
								CHANNELS 3 Zrotation Yrotation Xrotation
								JOINT LeftFingerBase
								{
									OFFSET 0 0 0
									CHANNELS 3 Zrotation Yrotation Xrotation
									JOINT LeftHandIndex1
									{
										OFFSET 0.98922 -0.00000 0.00000
										CHANNELS 3 Zrotation Yrotation Xrotation
										End Site
										{
											OFFSET 0.79753 -0.00000 0.00000
										}
									}
								}
								JOINT LThumb
								{
									OFFSET 0 0 0
									CHANNELS 3 Zrotation Yrotation Xrotation
									End Site
									{
										OFFSET 0.80972 -0.00000 0.80972
									}
								}
							}
						}
					}
				}
				JOINT RightShoulder
				{
					OFFSET 0 0 0
					CHANNELS 3 Zrotation Yrotation Xrotation
					JOINT RightArm
					{
						OFFSET -2.94414 1.45463 -0.25291
						CHANNELS 3 Zrotation Yrotation Xrotation
						JOINT RightForeArm
						{
							OFFSET -4.71404 -0.00000 0.00000
							CHANNELS 3 Zrotation Yrotation Xrotation
							JOINT RightHand
							{
								OFFSET -2.83468 -0.00000 0.00000
								CHANNELS 3 Zrotation Yrotation Xrotation
								JOINT RightFingerBase
								{
									OFFSET 0 0 0
									CHANNELS 3 Zrotation Yrotation Xrotation
									JOINT RightHandIndex1
									{
										OFFSET -0.86820 -0.00000 0.00000
										CHANNELS 3 Zrotation Yrotation Xrotation
										End Site
										{
											OFFSET -0.69996 -0.00000 0.00000
										}
									}
								}
								JOINT RThumb
								{
									OFFSET 0 0 0
									CHANNELS 3 Zrotation Yrotation Xrotation
									End Site
									{
										OFFSET -0.71065 -0.00000 0.71065
									}
								}
							}
						}
					}
				}
			}
		}
	}
}
MOTION
Frames: 5
Frame Time: .0083333
0.4149 16.089 23.6666 0 0 0 0 0 0 -21 0 0 0 0 0 0 0 0 0 0 0 0 0 0 21 0 0 0 0 0 0 0 0 0 0 0 0 0 0 0 0 0 0 0 0 0 0 -16 0 0 21 0 0 11 0 0 0 -8 0 0 0 0 0 0 0 0 0 0 0 0 0 0 0 0 0 0 0 0 8 0 0 0 0 0 0 0 0 0 0 0 0 0 0 0 0 0
0.4149 16.0890 23.6666 -178.7570 -0.3382 -169.8100 0.0000 0.0000 0.0000 -16.2458 -15.5938 -32.9107 3.0060 10.7048 31.2908 -0.1724 13.1248 6.8239 0.0703 -1.7106 -4.7066 0.0000 0.0000 0.0000 25.6493 -1.5286 5.6700 -6.7907 -15.1531 48.0782 -0.4783 -22.7608 19.3267 -0.9988 6.3599 -17.8324 -0.1029 6.0501 -3.5695 -3.5429 8.0430 -0.6993 -3.1508 3.9905 1.7640 -2.6667 -3.5045 -30.4765 6.8316 -13.6251 43.8211 -0.2931 -5.4492 27.4704 0.0000 0.0000 0.0000 -56.2409 30.9262 67.9312 128.6507 -53.5254 -92.7446 -0.0000 -0.0000 17.2215 11.9178 3.3438 0.7053 -7.1250 0.0000 -0.0000 -11.9303 33.2224 3.5091 0.0000 0.0000 0.0000 83.6054 -18.2604 54.3872 -112.6407 57.9717 -79.4739 0.0000 0.0000 5.2995 -11.1958 -0.0605 0.0120 7.1250 -0.0000 -0.0000 12.0551 -29.9260 4.5241
0.4018 15.9780 23.2884 -179.1320 -0.5748 -170.3720 0.0000 0.0000 0.0000 -17.4466 -14.7996 -31.6298 3.3824 11.2898 33.2635 -0.4023 13.5249 3.2073 0.1312 -2.3344 -6.4308 0.0000 0.0000 0.0000 24.7682 -2.2989 4.2093 -7.9110 -16.0534 52.2414 -0.2170 -23.1505 17.8321 -0.8857 5.9990 -16.7817 -0.8046 5.3105 -3.1242 -3.0432 7.0539 -1.0031 -2.3828 3.4895 0.9979 -3.0073 -2.7205 -28.7541 6.7816 -12.1925 43.9673 0.2466 -5.2125 26.6281 0.0000 0.0000 0.0000 -58.1829 32.0906 67.4638 128.2175 -53.6896 -92.3958 -0.0000 -0.0000 17.5697 11.8653 3.2471 0.6818 -7.1250 0.0000 -0.0000 -11.9580 33.1238 3.5466 0.0000 0.0000 0.0000 82.6869 -20.2555 55.0854 -110.7362 58.3113 -77.8563 0.0000 0.0000 6.4779 -11.8244 -0.5004 0.1048 7.1250 -0.0000 -0.0000 11.6205 -30.3760 4.2270
0.3926 15.9045 22.9130 -179.4440 -1.0290 -170.8000 0.0000 0.0000 0.0000 -18.2161 -14.7713 -30.5613 3.7819 11.8643 35.2537 -0.5621 14.1365 0.3484 0.2282 -3.0749 -8.4873 0.0000 0.0000 0.0000 24.0132 -2.9768 2.3078 -9.0432 -16.8354 56.2394 -0.0658 -23.0881 16.7457 -0.9216 6.1162 -17.1220 -1.0425 4.8570 -2.6581 -3.0771 6.4645 -0.4691 -2.3275 3.1978 1.2422 -2.8316 -2.7197 -30.1085 6.6574 -12.0404 43.8744 0.1623 -5.0378 27.0966 0.0000 0.0000 0.0000 -59.5970 30.1461 66.7545 126.7119 -54.2385 -91.1783 -0.0000 -0.0000 17.3335 12.0389 3.2984 0.7030 -7.1250 0.0000 -0.0000 -11.8266 33.1813 3.4894 0.0000 0.0000 0.0000 83.5689 -20.3321 53.8765 -107.8130 58.7665 -75.3626 0.0000 0.0000 6.7040 -12.2584 -0.7580 0.1647 7.1250 -0.0000 -0.0000 11.3130 -30.6421 4.0376
0.3833 15.8091 22.5415 -179.8820 -1.3617 -171.2230 0.0000 0.0000 0.0000 -19.1975 -14.5058 -29.4247 4.1573 12.3668 37.0424 -0.6968 15.0280 -1.7370 0.1572 -2.5546 -7.0411 0.0000 0.0000 0.0000 23.0706 -3.5796 0.5803 -10.2093 -17.5259 60.1856 0.0864 -22.9734 15.5679 -0.9168 6.1009 -17.0774 -1.5921 4.3507 -2.2365 -2.9647 5.7911 -0.3054 -1.9657 2.8578 1.0848 -2.8847 -2.4434 -29.9888 6.6708 -11.5146 43.8377 0.3538 -4.8907 26.9260 0.0000 0.0000 0.0000 -61.1053 29.2291 66.3094 125.3495 -54.7072 -90.0695 -0.0000 -0.0000 17.3195 12.2420 3.2668 0.7084 -7.1250 0.0000 -0.0000 -11.6594 33.1571 3.4453 0.0000 0.0000 0.0000 83.8797 -21.3030 53.1474 -105.1949 59.1094 -73.1198 0.0000 0.0000 7.2604 -12.7889 -1.1314 0.2568 7.1250 -0.0000 -0.0000 10.9422 -31.0281 3.7977
